<?xml version="1.0" standalone="no"?>
<!DOCTYPE svg PUBLIC "-//W3C//DTD SVG 20010904//EN"
 "http://www.w3.org/TR/2001/REC-SVG-20010904/DTD/svg10.dtd">
<svg version="1.0" xmlns="http://www.w3.org/2000/svg"
 width="663.000000pt" height="663.000000pt" viewBox="0 0 663.000000 663.000000"
 preserveAspectRatio="xMidYMid meet">
<metadata>
Created by potrace 1.14, written by Peter Selinger 2001-2017
</metadata>
<g transform="translate(0.000000,663.000000) scale(0.100000,-0.100000)"
fill="#000000" stroke="none">
<path d="M3534 5790 c-121 -13 -216 -32 -207 -39 4 -4 33 -18 63 -30 132 -55
390 -212 471 -288 85 -79 99 -132 54 -208 -67 -114 -223 -166 -412 -135 -121
19 -241 63 -457 166 -344 165 -419 188 -601 189 -118 0 -121 -1 -198 -37 -160
-76 -291 -247 -397 -514 -17 -42 -29 -78 -27 -81 2 -2 42 5 88 16 277 63 503
55 669 -26 178 -86 290 -327 277 -593 -9 -179 -54 -299 -146 -390 -80 -80
-177 -120 -291 -120 -128 0 -254 56 -470 212 -509 366 -860 444 -1013 227 -70
-100 -80 -151 -82 -419 -1 -145 -6 -254 -14 -284 -19 -79 -62 -157 -116 -212
-123 -124 -298 -155 -623 -111 -50 8 -92 10 -92 6 0 -11 171 -166 227 -206
100 -72 215 -119 317 -129 177 -18 386 101 554 314 121 153 182 187 342 187
124 0 194 -21 305 -90 194 -121 327 -304 361 -497 26 -147 -6 -253 -111 -366
-103 -111 -201 -161 -387 -198 l-87 -17 31 -40 c18 -22 57 -60 87 -84 130
-102 274 -143 511 -143 265 0 358 14 703 104 225 59 344 74 458 58 119 -16
203 -60 244 -126 27 -44 30 -58 30 -130 0 -72 -4 -89 -36 -156 -72 -152 -223
-274 -418 -340 -119 -40 -203 -52 -396 -59 l-190 -6 140 -64 c458 -209 803
-290 1185 -278 251 8 421 48 629 150 222 108 448 301 601 513 l31 44 -480 0
-481 0 0 1590 0 1590 551 0 551 0 -47 88 c-151 279 -351 512 -583 679 -176
127 -424 232 -632 268 -109 19 -382 28 -486 15z m346 -2310 l0 -720 -300 0
-300 0 0 720 0 720 300 0 300 0 0 -720z m-900 -350 l0 -370 -310 0 -310 0 0
370 0 370 310 0 310 0 0 -370z m-363 -591 c82 -39 117 -150 77 -236 -42 -87
-161 -120 -248 -69 -77 45 -107 145 -67 224 48 94 144 127 238 81z m580 0 c82
-39 117 -150 77 -236 -42 -87 -161 -120 -248 -69 -77 45 -107 145 -67 224 48
94 144 127 238 81z m580 0 c82 -39 117 -150 77 -236 -42 -87 -161 -120 -248
-69 -77 45 -107 145 -67 224 48 94 144 127 238 81z"/>
<path d="M4553 4460 c-118 -72 -82 -255 54 -267 58 -6 108 23 135 77 63 124
-73 261 -189 190z"/>
<path d="M4920 4330 l0 -110 840 0 840 0 0 110 0 110 -840 0 -840 0 0 -110z"/>
<path d="M4480 3345 l0 -665 414 0 413 0 6 38 c30 190 33 438 7 527 l-12 39
-28 -34 c-105 -129 -153 -310 -116 -434 l15 -48 -21 19 c-44 39 -119 159 -139
222 -25 79 -28 212 -6 284 18 57 17 58 -91 21 -154 -51 -283 -145 -343 -249
l-29 -50 0 47 c0 77 27 195 62 265 63 128 198 244 365 313 43 18 80 34 81 35
8 8 -85 98 -122 120 -51 29 -113 39 -150 25 -15 -5 -26 -6 -24 -1 7 19 106 93
158 118 74 36 174 38 242 4 42 -20 117 -87 151 -135 13 -18 17 -17 77 31 106
86 216 133 311 133 55 0 148 -32 207 -71 l53 -34 -55 -7 c-107 -14 -229 -92
-326 -209 l-52 -62 51 -13 c122 -32 221 -115 260 -220 27 -70 26 -82 -1 -57
-65 59 -193 91 -318 79 -42 -4 -81 -11 -88 -14 -8 -6 -2 -26 18 -70 56 -117
107 -335 125 -534 l7 -78 509 0 509 0 0 665 0 665 -1060 0 -1060 0 0 -665z
m1808 185 c88 -54 96 -166 18 -239 -19 -18 -41 -26 -78 -29 -63 -5 -113 23
-140 78 -64 127 79 263 200 190z"/>
<path d="M4480 2430 l0 -60 1060 0 1060 0 0 60 0 60 -1060 0 -1060 0 0 -60z"/>
<path d="M4480 2180 l0 -60 1060 0 1060 0 0 60 0 60 -1060 0 -1060 0 0 -60z"/>
<path d="M4480 1920 l0 -60 1060 0 1060 0 0 60 0 60 -1060 0 -1060 0 0 -60z"/>
</g>
</svg>
